<svg width="75" height="76" xmlns="http://www.w3.org/2000/svg" xmlns:xlink="http://www.w3.org/1999/xlink" overflow="hidden"><defs><clipPath id="clip0"><rect x="786" y="418" width="75" height="76"/></clipPath></defs><g clip-path="url(#clip0)" transform="translate(-786 -418)"><path d="M9.23276 36.2457C7.54325 35.3446 5.99634 34.1986 4.64224 32.8448 2.54866 30.8161 1.05817 28.2469 0.336207 25.4224-0.671533 21.2555 0.631343 16.8682 3.75 13.9267 5.59663 11.9121 8.30609 10.919 11.0172 11.2629 14.3922 11.7155 17.3147 14.2241 19.3578 16.6034L15.5431 22.1379C14.5617 20.5894 13.2447 19.2813 11.6897 18.3103 10.9007 17.8677 9.96129 17.7797 9.10383 18.068 8.24637 18.3562 7.55096 18.9939 7.18966 19.8233 5.09483 23.7802 8.0819 27.8664 11.3922 30.0129Z" fill="#C03A2B" transform="matrix(1 0 0 1.01333 786 418.655)"/><path d="M59.9871 41.056C56.8836 43.4224 52.4353 44.8448 46.7586 44.5474 42.6336 44.3276 40.2672 43.3966 38.9095 41.9871 35.1853 38.1466 39.0388 30.8534 35.0819 25.5517 32.0126 21.6486 27.1725 19.5694 22.2284 20.0302 21.1034 17.2759 20.8448 15.0905 21.6207 13.8103 21.6207 13.7974 21.6207 13.7974 21.6336 13.7845L21.6336 13.7716C21.7313 13.6225 21.8439 13.4839 21.9698 13.3578 25.2543 10.0733 37.7328 17.2371 49.8621 29.3534 53.5276 32.9931 56.9123 36.9052 59.9871 41.056Z" fill="#BDC3C7" transform="matrix(1 0 0 1.01333 786 418.655)"/><path d="M65.4052 57.5948C60.2974 61.9914 34.8621 82.0216 16.0216 63.181 7.55172 54.7241 6.94397 44.9224 9.23276 36.2457 9.79658 34.1173 10.5184 32.0339 11.3922 30.0129 12.5781 27.2884 13.9656 24.656 15.5431 22.1379 16.8879 19.9655 18.2328 18.0776 19.3578 16.6034 20.2888 15.3879 21.0647 14.444 21.6207 13.8103 20.8448 15.0905 21.1034 17.2759 22.2284 20.0302 24.4784 25.5776 30.2069 33.4784 37.9655 41.2371 38.25 41.5216 38.5345 41.7931 38.819 42.0776 50.1724 53.1983 61.6422 59.8707 65.4052 57.5948Z" fill="#E64C3C" transform="matrix(1 0 0 1.01333 786 418.655)"/><path d="M59.9871 41.056C56.9123 36.9052 53.5276 32.9931 49.8621 29.3534 37.7328 17.2371 25.2543 10.0733 21.9698 13.3578 21.8439 13.4839 21.7313 13.6225 21.6336 13.7716L21.6336 13.7845C21.6207 13.7974 21.6207 13.7974 21.6207 13.8103 20.8448 15.0905 21.1034 17.2759 22.2284 20.0302 24.4784 25.5776 30.2069 33.4784 37.9655 41.2371 38.25 41.5216 38.5345 41.7931 38.819 42.0776 50.1724 53.1983 61.6422 59.8707 65.4052 57.5948Z" fill="#BDC3C7" transform="matrix(1 0 0 1.01333 786 418.655)"/><path d="M58.6833 8.37868C58.6833 11.9725 56.9353 14.8859 54.779 14.8859 52.6227 14.8859 50.8747 11.9725 50.8747 8.37868 50.8747 4.78485 52.6227 1.87147 54.779 1.87147 56.9353 1.87147 58.6833 4.78485 58.6833 8.37868Z" fill="#A56A43" transform="matrix(0.70247 -0.711836 0.70247 0.711836 796.055 460.126)"/><path d="M32.4698 57.7241C28.8621 61.3448 23.8966 62.3664 20.7155 60.3621 22.9914 57.9698 21.2586 56.1595 23.6509 53.7802 26.0819 51.3362 27.9052 53.1595 30.3491 50.7284 32.7284 48.3362 30.9957 46.5388 33.2845 44.1466 33.6489 44.3812 33.987 44.6543 34.2931 44.9612 37.306 47.9871 36.5043 53.7026 32.4698 57.7241Z" fill="#F29C1F" transform="matrix(1 0 0 1.01333 786 418.655)"/><path d="M33.2845 44.1466C30.9957 46.5388 32.7284 48.3362 30.3491 50.7284 27.9052 53.1595 26.0819 51.3362 23.6509 53.7802 21.2586 56.1595 22.9914 57.9698 20.7155 60.3621 20.3511 60.1274 20.013 59.8543 19.7069 59.5474 16.681 56.5215 17.4957 50.806 21.5302 46.7845 25.1379 43.1638 30.1034 42.1422 33.2845 44.1466Z" fill="#E57E25" transform="matrix(1 0 0 1.01333 786 418.655)"/><path d="M38.9095 41.9871 38.819 42.0776C38.5345 41.7931 38.25 41.5216 37.9655 41.2371 30.2069 33.4784 24.4784 25.5776 22.2284 20.0302 27.1725 19.5694 32.0126 21.6486 35.0819 25.5517 39.0388 30.8534 35.1853 38.1466 38.9095 41.9871Z" fill="#A56A43" transform="matrix(1 0 0 1.01333 786 418.655)"/><path d="M59.9871 41.056C56.9123 36.9052 53.5276 32.9931 49.8621 29.3534 37.7328 17.2371 25.2543 10.0733 21.9698 13.3578 21.8439 13.4839 21.7313 13.6225 21.6336 13.7716L21.6336 13.7845C21.6207 13.7974 21.6207 13.7974 21.6207 13.8103 20.8448 15.0905 21.1034 17.2759 22.2284 20.0302 24.4784 25.5776 30.2069 33.4784 37.9655 41.2371 38.25 41.5216 38.5345 41.7931 38.819 42.0776 50.1724 53.1983 61.6422 59.8707 65.4052 57.5948 66.7358 56.6315 64.7974 53.3405 64.7974 53.3405ZM40.6293 40.2285 39.7888 39.4138C38.8707 38.4957 37.9914 37.5776 37.1121 36.6466 31.6164 30.7371 27.194 24.6724 25.0603 20.0819 24.9052 19.7328 24.75 19.3966 24.6207 19.0603 24.0407 17.9016 23.7522 16.6188 23.7802 15.3233L23.9612 15.1681C24.0724 15.1504 24.1848 15.1418 24.2974 15.1422 28.0216 15.1422 37.6034 20.7672 48.0388 31.1897 51.5091 34.6418 54.7244 38.3412 57.6595 42.2586L57.7371 42.4784 61.9009 55.1897C58.3319 54.2198 52.1638 50.5345 45.1681 44.4181 43.681 43.1379 42.1681 41.7285 40.6293 40.2285Z" fill="#ECF0F1" transform="matrix(1 0 0 1.01333 786 418.655)"/><path d="M74.9612 36.181C74.7819 41.5966 73.2862 46.887 70.6034 51.5948 69.2502 53.8549 66.8512 55.283 64.2194 55.3953L64.1741 55.3953C63.3339 55.4444 62.4913 55.3531 61.681 55.125 60.107 54.6157 58.5902 53.944 57.1552 53.1207 56.2112 52.5905 55.2026 51.9828 54.1293 51.2845 50.9841 49.2098 47.9896 46.9153 45.1681 44.4181 45.6724 44.4698 46.2026 44.5216 46.7586 44.5474 52.4353 44.8448 56.8836 43.4224 59.9871 41.056 65.2707 37.2398 66.695 29.9828 63.2457 24.4526 57.8535 15.4138 76.0216 15.2845 74.9612 36.181Z" fill="#A56A43" transform="matrix(1 0 0 1.01333 786 418.655)"/><path d="M65.6509 47.3793C63.4201 50.0594 60.4738 52.0505 57.1552 53.1207 56.2112 52.5905 55.2026 51.9828 54.1293 51.2845 57.8467 50.5709 61.209 48.6092 63.6595 45.7241 64.1165 45.1742 64.9329 45.099 65.4828 45.556 66.0327 46.0131 66.1079 46.8294 65.6509 47.3793Z" fill="#805333" transform="matrix(1 0 0 1.01333 786 418.655)"/></g></svg>